<?xml version="1.0" encoding="UTF-8"?>
<svg width="1060px" height="500px" viewBox="0 0 1060 500" version="1.1" xmlns="http://www.w3.org/2000/svg" xmlns:xlink="http://www.w3.org/1999/xlink">
    <!-- Generator: Sketch 46.2 (44496) - http://www.bohemiancoding.com/sketch -->
    <title>KNX_logo</title>
    <desc>Created with Sketch.</desc>
    <defs>
        <polygon id="path-1" points="0.45196915 0.622117485 1146.717 0.622117485 1146.717 500.469312 0.45196915 500.469312"></polygon>
    </defs>
    <g id="Page-1" stroke="none" stroke-width="1" fill="none" fill-rule="evenodd">
        <g id="KNX_logo" transform="translate(-13.000000, -16.000000)">
            <g id="g116" transform="translate(808.321575, 109.563269) scale(-1, 1) rotate(-180.000000) translate(-808.321575, -109.563269) translate(540.945620, 0.182197)" fill-rule="nonzero" fill="#FFFFFF">
                <path d="M250.604191,108.943548 C370.096936,70.8303212 447.222745,2.13900764 447.222745,2.13900764 L527.678601,2.11470073 C527.678601,2.11470073 443.114878,95.3316814 280.477377,152.525829 C117.839875,209.695669 0,202.670974 0,202.670974 L0,145.84143 C0,145.84143 131.135752,147.081082 250.604191,108.943548 Z" id="path118"></path>
            </g>
            <g id="g120" transform="translate(280.108222, 124.487709) scale(-1, 1) rotate(-180.000000) translate(-280.108222, -124.487709) translate(0.578815, 15.106637)" fill-rule="nonzero" fill="#FFFFFF">
                <path d="M12.6638975,17.0148335 L93.1683669,17.0391404 C93.1683669,17.0391404 159.842207,82.1087251 288.693111,122.944325 C417.519707,163.779926 540.148043,160.741563 540.148043,160.741563 L540.148043,217.571107 C540.148043,217.571107 421.092822,223.696447 267.375955,170.148335 C114.558443,122.04497 12.6638975,17.0148335 12.6638975,17.0148335 Z" id="path122"></path>
            </g>
            <g id="g128" transform="translate(523.566180, 366.415306) scale(-1, 1) rotate(-180.000000) translate(-523.566180, -366.415306) translate(353.417845, 208.420424)" fill-rule="nonzero" fill="#FFFFFF">
                <polyline id="path130" points="121.534525 291.68286 246.423403 115.555026 245.767116 291.123801 325.736834 291.318256 325.785448 10.7193451 233.394902 10.743652 104.422464 184.975547 103.03697 10.743652 24.063836 10.743652 24.063836 291.707167"></polyline>
            </g>
            <g id="g132" transform="translate(889.968492, 370.158570) scale(-1, 1) rotate(-180.000000) translate(-889.968492, -370.158570) translate(707.666705, 224.317140)" fill-rule="nonzero" fill="#FFFFFF">
                <polyline id="path134" points="364.603575 0 267.910707 0.4861381 183.006688 101.724397 83.9074361 0 3.20851146 0 146.035885 145.744202 32.4254113 281.133663 126.663282 281.060743 197.736672 198.22281 280.112773 281.060743 360.811698 281.060743 234.683168 154.178698"></polyline>
            </g>
            <g id="g136" transform="translate(586.047730, 266.121180) scale(-1, 1) rotate(-180.000000) translate(-586.047730, -266.121180) translate(12.547730, 15.621180)">
                <g id="g138-Clipped" transform="translate(-0.000000, -0.000000)">
                    <mask id="mask-2" fill="white">
                        <use xlink:href="#path-1"></use>
                    </mask>
                    <g id="path142"></g>
                    <g id="g138" mask="url(#mask-2)">
                        <g transform="translate(-34.306905, -34.306905)" id="g144">
                            <g transform="translate(16.237013, 15.677954)">
                                <polyline id="path146" fill="#FFFFFF" fill-rule="nonzero" points="194.45524 170.148335 183.006688 184.56233 297.370676 300.579187 215.650861 300.579187 99.1964793 182.180253 99.1964793 300.287504 18.7163168 300.287504 18.5218616 19.2753757 99.1964793 19.2510688 99.1964793 99.5124691 131.087139 131.840653 225.422237 19.5670585 321.944957 19.5913654"></polyline>
                            </g>
                        </g>
                    </g>
                </g>
            </g>
        </g>
    </g>
</svg>